<mxfile host="app.diagrams.net" modified="2023-08-03T07:59:43.095Z" agent="Mozilla/5.0 (Windows NT 10.0; Win64; x64) AppleWebKit/537.36 (KHTML, like Gecko) Chrome/114.0.0.0 Safari/537.36 Edg/114.0.1823.82" etag="qLANZv8zvXeopj_D-K4h" version="21.6.5" type="github">
  <diagram name="第 1 页" id="4LM2ycM2VbE3EXapF863">
    <mxGraphModel dx="1358" dy="936" grid="1" gridSize="10" guides="1" tooltips="1" connect="1" arrows="1" fold="1" page="1" pageScale="1" pageWidth="1169" pageHeight="827" math="0" shadow="0">
      <root>
        <mxCell id="0" />
        <mxCell id="1" parent="0" />
        <mxCell id="IZmZEBvCgHjcbLLQQi7D-3" value="Elastic Search" style="rounded=1;whiteSpace=wrap;html=1;fillColor=#e1d5e7;strokeColor=#9673a6;" vertex="1" parent="1">
          <mxGeometry x="480" y="430" width="120" height="60" as="geometry" />
        </mxCell>
        <mxCell id="IZmZEBvCgHjcbLLQQi7D-6" style="edgeStyle=orthogonalEdgeStyle;rounded=0;orthogonalLoop=1;jettySize=auto;html=1;entryX=0.5;entryY=0;entryDx=0;entryDy=0;" edge="1" parent="1" source="IZmZEBvCgHjcbLLQQi7D-4" target="IZmZEBvCgHjcbLLQQi7D-7">
          <mxGeometry relative="1" as="geometry" />
        </mxCell>
        <mxCell id="IZmZEBvCgHjcbLLQQi7D-4" value="接收前端传入的查询VO参数" style="ellipse;whiteSpace=wrap;html=1;fillColor=#dae8fc;strokeColor=#6c8ebf;" vertex="1" parent="1">
          <mxGeometry x="480" y="80" width="120" height="80" as="geometry" />
        </mxCell>
        <mxCell id="IZmZEBvCgHjcbLLQQi7D-9" style="edgeStyle=orthogonalEdgeStyle;rounded=0;orthogonalLoop=1;jettySize=auto;html=1;entryX=0.5;entryY=0;entryDx=0;entryDy=0;" edge="1" parent="1" source="IZmZEBvCgHjcbLLQQi7D-5" target="IZmZEBvCgHjcbLLQQi7D-3">
          <mxGeometry relative="1" as="geometry">
            <mxPoint x="540" y="470" as="targetPoint" />
          </mxGeometry>
        </mxCell>
        <mxCell id="IZmZEBvCgHjcbLLQQi7D-11" value="查询对应VO参数的与材料类别idList包含的" style="edgeLabel;html=1;align=center;verticalAlign=middle;resizable=0;points=[];" vertex="1" connectable="0" parent="IZmZEBvCgHjcbLLQQi7D-9">
          <mxGeometry x="-0.2196" y="1" relative="1" as="geometry">
            <mxPoint as="offset" />
          </mxGeometry>
        </mxCell>
        <mxCell id="IZmZEBvCgHjcbLLQQi7D-5" value="根据VO参数拼装SearchRequest" style="rounded=1;whiteSpace=wrap;html=1;fillColor=#dae8fc;strokeColor=#6c8ebf;" vertex="1" parent="1">
          <mxGeometry x="480" y="310" width="120" height="60" as="geometry" />
        </mxCell>
        <mxCell id="IZmZEBvCgHjcbLLQQi7D-8" style="edgeStyle=orthogonalEdgeStyle;rounded=0;orthogonalLoop=1;jettySize=auto;html=1;entryX=0.5;entryY=0;entryDx=0;entryDy=0;" edge="1" parent="1" source="IZmZEBvCgHjcbLLQQi7D-7" target="IZmZEBvCgHjcbLLQQi7D-5">
          <mxGeometry relative="1" as="geometry" />
        </mxCell>
        <mxCell id="IZmZEBvCgHjcbLLQQi7D-7" value="通过REST接口查询构建类别id列表" style="rounded=1;whiteSpace=wrap;html=1;fillColor=#dae8fc;strokeColor=#6c8ebf;" vertex="1" parent="1">
          <mxGeometry x="480" y="210" width="120" height="60" as="geometry" />
        </mxCell>
      </root>
    </mxGraphModel>
  </diagram>
</mxfile>
